# 3ds Max Wavefront OBJ Exporter v0.97b - (c)2007 guruware
# File Created: 17.11.2019 13:44:07

mtllib cone.mtl

#
# object Cone001
#

v  0.0000 0.0000 -0.0000
v  0.4619 0.0000 -0.1913
v  0.5000 0.0000 -0.0000
v  0.3536 0.0000 -0.3536
v  0.1913 0.0000 -0.4619
v  -0.0000 0.0000 -0.5000
v  -0.1913 0.0000 -0.4619
v  -0.3536 0.0000 -0.3536
v  -0.4619 0.0000 -0.1913
v  -0.5000 0.0000 -0.0000
v  -0.4619 0.0000 0.1913
v  -0.3536 0.0000 0.3536
v  -0.1913 0.0000 0.4619
v  0.0000 0.0000 0.5000
v  0.1913 0.0000 0.4619
v  0.3536 0.0000 0.3536
v  0.4619 0.0000 0.1913
v  0.3696 0.4000 -0.1531
v  0.4000 0.4000 -0.0000
v  0.2828 0.4000 -0.2828
v  0.1531 0.4000 -0.3696
v  -0.0000 0.4000 -0.4000
v  -0.1531 0.4000 -0.3696
v  -0.2828 0.4000 -0.2828
v  -0.3696 0.4000 -0.1531
v  -0.4000 0.4000 -0.0000
v  -0.3696 0.4000 0.1531
v  -0.2828 0.4000 0.2828
v  -0.1531 0.4000 0.3696
v  0.0000 0.4000 0.4000
v  0.1531 0.4000 0.3696
v  0.2828 0.4000 0.2828
v  0.3696 0.4000 0.1531
v  0.2772 0.8000 -0.1148
v  0.3000 0.8000 -0.0000
v  0.2121 0.8000 -0.2121
v  0.1148 0.8000 -0.2772
v  -0.0000 0.8000 -0.3000
v  -0.1148 0.8000 -0.2772
v  -0.2121 0.8000 -0.2121
v  -0.2772 0.8000 -0.1148
v  -0.3000 0.8000 -0.0000
v  -0.2772 0.8000 0.1148
v  -0.2121 0.8000 0.2121
v  -0.1148 0.8000 0.2772
v  0.0000 0.8000 0.3000
v  0.1148 0.8000 0.2772
v  0.2121 0.8000 0.2121
v  0.2772 0.8000 0.1148
v  0.1848 1.2000 -0.0765
v  0.2000 1.2000 -0.0000
v  0.1414 1.2000 -0.1414
v  0.0765 1.2000 -0.1848
v  -0.0000 1.2000 -0.2000
v  -0.0765 1.2000 -0.1848
v  -0.1414 1.2000 -0.1414
v  -0.1848 1.2000 -0.0765
v  -0.2000 1.2000 -0.0000
v  -0.1848 1.2000 0.0765
v  -0.1414 1.2000 0.1414
v  -0.0765 1.2000 0.1848
v  0.0000 1.2000 0.2000
v  0.0765 1.2000 0.1848
v  0.1414 1.2000 0.1414
v  0.1848 1.2000 0.0765
v  0.0924 1.6000 -0.0383
v  0.1000 1.6000 -0.0000
v  0.0707 1.6000 -0.0707
v  0.0383 1.6000 -0.0924
v  -0.0000 1.6000 -0.1000
v  -0.0383 1.6000 -0.0924
v  -0.0707 1.6000 -0.0707
v  -0.0924 1.6000 -0.0383
v  -0.1000 1.6000 -0.0000
v  -0.0924 1.6000 0.0383
v  -0.0707 1.6000 0.0707
v  -0.0383 1.6000 0.0924
v  0.0000 1.6000 0.1000
v  0.0383 1.6000 0.0924
v  0.0707 1.6000 0.0707
v  0.0924 1.6000 0.0383
v  0.0000 2.0000 -0.0000
# 82 vertices

vn 0.0000 -1.0000 -0.0000
vn 0.9701 0.2425 -0.0000
vn 0.8963 0.2425 -0.3713
vn 0.6860 0.2425 -0.6860
vn 0.3713 0.2425 -0.8963
vn 0.0000 0.2425 -0.9701
vn -0.0000 0.2425 -0.9701
vn -0.3713 0.2425 -0.8963
vn -0.6860 0.2425 -0.6860
vn -0.8963 0.2425 -0.3713
vn -0.9701 0.2425 -0.0000
vn -0.8963 0.2425 0.3713
vn -0.6860 0.2425 0.6860
vn -0.3713 0.2425 0.8963
vn 0.0000 0.2425 0.9701
vn 0.3713 0.2425 0.8963
vn 0.6860 0.2425 0.6860
vn 0.8963 0.2425 0.3713
vn 0.9526 0.2381 -0.1895
vn 0.9526 0.2381 0.1895
vn 0.8075 0.2381 -0.5396
vn 0.5396 0.2381 -0.8075
vn 0.1895 0.2381 -0.9526
vn -0.1895 0.2381 -0.9526
vn -0.5396 0.2381 -0.8075
vn -0.8075 0.2381 -0.5396
vn -0.9526 0.2381 -0.1895
vn -0.9526 0.2381 0.1895
vn -0.8075 0.2381 0.5396
vn -0.5396 0.2381 0.8075
vn -0.1895 0.2381 0.9526
vn 0.1895 0.2381 0.9526
vn 0.5396 0.2381 0.8075
vn 0.8075 0.2381 0.5396
vn 1.0000 0.0000 -0.0000
# 35 vertex normals

vt 0.5000 0.0000 0.0000
vt 0.8125 0.0000 1.0000
vt 0.7500 0.0000 1.0000
vt 0.8750 0.0000 1.0000
vt 0.9375 0.0000 1.0000
vt 0.0000 0.0000 1.0000
vt -0.0625 0.0000 1.0000
vt 0.0625 0.0000 1.0000
vt 0.1250 0.0000 1.0000
vt 0.1875 0.0000 1.0000
vt 0.2500 0.0000 1.0000
vt 0.3125 0.0000 1.0000
vt 0.3750 0.0000 1.0000
vt 0.4375 0.0000 1.0000
vt 0.5000 0.0000 1.0000
vt 0.5625 0.0000 1.0000
vt 0.6250 0.0000 1.0000
vt 0.6875 0.0000 1.0000
vt 0.8125 0.2000 0.8000
vt 0.7500 0.2000 0.8000
vt 0.8750 0.2000 0.8000
vt 0.9375 0.2000 0.8000
vt 0.0000 0.2000 0.8000
vt -0.0625 0.2000 0.8000
vt 0.0625 0.2000 0.8000
vt 0.1250 0.2000 0.8000
vt 0.1875 0.2000 0.8000
vt 0.2500 0.2000 0.8000
vt 0.3125 0.2000 0.8000
vt 0.3750 0.2000 0.8000
vt 0.4375 0.2000 0.8000
vt 0.5000 0.2000 0.8000
vt 0.5625 0.2000 0.8000
vt 0.6250 0.2000 0.8000
vt 0.6875 0.2000 0.8000
vt 0.8125 0.4000 0.6000
vt 0.7500 0.4000 0.6000
vt 0.8750 0.4000 0.6000
vt 0.9375 0.4000 0.6000
vt 0.0000 0.4000 0.6000
vt -0.0625 0.4000 0.6000
vt 0.0625 0.4000 0.6000
vt 0.1250 0.4000 0.6000
vt 0.1875 0.4000 0.6000
vt 0.2500 0.4000 0.6000
vt 0.3125 0.4000 0.6000
vt 0.3750 0.4000 0.6000
vt 0.4375 0.4000 0.6000
vt 0.5000 0.4000 0.6000
vt 0.5625 0.4000 0.6000
vt 0.6250 0.4000 0.6000
vt 0.6875 0.4000 0.6000
vt 0.8125 0.6000 0.4000
vt 0.7500 0.6000 0.4000
vt 0.8750 0.6000 0.4000
vt 0.9375 0.6000 0.4000
vt 0.0000 0.6000 0.4000
vt -0.0625 0.6000 0.4000
vt 0.0625 0.6000 0.4000
vt 0.1250 0.6000 0.4000
vt 0.1875 0.6000 0.4000
vt 0.2500 0.6000 0.4000
vt 0.3125 0.6000 0.4000
vt 0.3750 0.6000 0.4000
vt 0.4375 0.6000 0.4000
vt 0.5000 0.6000 0.4000
vt 0.5625 0.6000 0.4000
vt 0.6250 0.6000 0.4000
vt 0.6875 0.6000 0.4000
vt 0.8125 0.8000 0.2000
vt 0.7500 0.8000 0.2000
vt 0.8750 0.8000 0.2000
vt 0.9375 0.8000 0.2000
vt 0.0000 0.8000 0.2000
vt -0.0625 0.8000 0.2000
vt 0.0625 0.8000 0.2000
vt 0.1250 0.8000 0.2000
vt 0.1875 0.8000 0.2000
vt 0.2500 0.8000 0.2000
vt 0.3125 0.8000 0.2000
vt 0.3750 0.8000 0.2000
vt 0.4375 0.8000 0.2000
vt 0.5000 0.8000 0.2000
vt 0.5625 0.8000 0.2000
vt 0.6250 0.8000 0.2000
vt 0.6875 0.8000 0.2000
vt 0.5000 1.0000 0.0000
# 87 texture coords

o Cone001
g Cone001
usemtl 02___Default
s 1
f 1/1/1 2/2/1 3/3/1 
f 1/1/1 4/4/1 2/2/1 
f 1/1/1 5/5/1 4/4/1 
f 1/1/1 6/6/1 5/7/1 
f 1/1/1 7/8/1 6/6/1 
f 1/1/1 8/9/1 7/8/1 
f 1/1/1 9/10/1 8/9/1 
f 1/1/1 10/11/1 9/10/1 
f 1/1/1 11/12/1 10/11/1 
f 1/1/1 12/13/1 11/12/1 
f 1/1/1 13/14/1 12/13/1 
f 1/1/1 14/15/1 13/14/1 
f 1/1/1 15/16/1 14/15/1 
f 1/1/1 16/17/1 15/16/1 
f 1/1/1 17/18/1 16/17/1 
f 1/1/1 3/3/1 17/18/1 
s 8
f 3/3/2 18/19/3 19/20/2 
f 3/3/2 2/2/3 18/19/3 
f 2/2/3 20/21/4 18/19/3 
f 2/2/3 4/4/4 20/21/4 
f 4/4/4 21/22/5 20/21/4 
f 4/4/4 5/5/5 21/22/5 
f 5/7/5 22/23/6 21/24/5 
f 5/7/5 6/6/7 22/23/6 
f 6/6/7 23/25/8 22/23/6 
f 6/6/7 7/8/8 23/25/8 
f 7/8/8 24/26/9 23/25/8 
f 7/8/8 8/9/9 24/26/9 
f 8/9/9 25/27/10 24/26/9 
f 8/9/9 9/10/10 25/27/10 
f 9/10/10 26/28/11 25/27/10 
f 9/10/10 10/11/11 26/28/11 
f 10/11/11 27/29/12 26/28/11 
f 10/11/11 11/12/12 27/29/12 
f 11/12/12 28/30/13 27/29/12 
f 11/12/12 12/13/13 28/30/13 
f 12/13/13 29/31/14 28/30/13 
f 12/13/13 13/14/14 29/31/14 
f 13/14/14 30/32/15 29/31/14 
f 13/14/14 14/15/15 30/32/15 
f 14/15/15 31/33/16 30/32/15 
f 14/15/15 15/16/16 31/33/16 
f 15/16/16 32/34/17 31/33/16 
f 15/16/16 16/17/17 32/34/17 
f 16/17/17 33/35/18 32/34/17 
f 16/17/17 17/18/18 33/35/18 
f 17/18/18 19/20/2 33/35/18 
f 17/18/18 3/3/2 19/20/2 
f 19/20/2 34/36/3 35/37/2 
f 19/20/2 18/19/3 34/36/3 
f 18/19/3 36/38/4 34/36/3 
f 18/19/3 20/21/4 36/38/4 
f 20/21/4 37/39/5 36/38/4 
f 20/21/4 21/22/5 37/39/5 
f 21/24/5 38/40/7 37/41/5 
f 21/24/5 22/23/6 38/40/7 
f 22/23/6 39/42/8 38/40/7 
f 22/23/6 23/25/8 39/42/8 
f 23/25/8 40/43/9 39/42/8 
f 23/25/8 24/26/9 40/43/9 
f 24/26/9 41/44/10 40/43/9 
f 24/26/9 25/27/10 41/44/10 
f 25/27/10 42/45/11 41/44/10 
f 25/27/10 26/28/11 42/45/11 
f 26/28/11 43/46/12 42/45/11 
f 26/28/11 27/29/12 43/46/12 
f 27/29/12 44/47/13 43/46/12 
f 27/29/12 28/30/13 44/47/13 
f 28/30/13 45/48/14 44/47/13 
f 28/30/13 29/31/14 45/48/14 
f 29/31/14 46/49/15 45/48/14 
f 29/31/14 30/32/15 46/49/15 
f 30/32/15 47/50/16 46/49/15 
f 30/32/15 31/33/16 47/50/16 
f 31/33/16 48/51/17 47/50/16 
f 31/33/16 32/34/17 48/51/17 
f 32/34/17 49/52/18 48/51/17 
f 32/34/17 33/35/18 49/52/18 
f 33/35/18 35/37/2 49/52/18 
f 33/35/18 19/20/2 35/37/2 
f 35/37/2 50/53/3 51/54/2 
f 35/37/2 34/36/3 50/53/3 
f 34/36/3 52/55/4 50/53/3 
f 34/36/3 36/38/4 52/55/4 
f 36/38/4 53/56/5 52/55/4 
f 36/38/4 37/39/5 53/56/5 
f 37/41/5 54/57/6 53/58/5 
f 37/41/5 38/40/7 54/57/6 
f 38/40/7 55/59/8 54/57/6 
f 38/40/7 39/42/8 55/59/8 
f 39/42/8 56/60/9 55/59/8 
f 39/42/8 40/43/9 56/60/9 
f 40/43/9 57/61/10 56/60/9 
f 40/43/9 41/44/10 57/61/10 
f 41/44/10 58/62/11 57/61/10 
f 41/44/10 42/45/11 58/62/11 
f 42/45/11 59/63/12 58/62/11 
f 42/45/11 43/46/12 59/63/12 
f 43/46/12 60/64/13 59/63/12 
f 43/46/12 44/47/13 60/64/13 
f 44/47/13 61/65/14 60/64/13 
f 44/47/13 45/48/14 61/65/14 
f 45/48/14 62/66/15 61/65/14 
f 45/48/14 46/49/15 62/66/15 
f 46/49/15 63/67/16 62/66/15 
f 46/49/15 47/50/16 63/67/16 
f 47/50/16 64/68/17 63/67/16 
f 47/50/16 48/51/17 64/68/17 
f 48/51/17 65/69/18 64/68/17 
f 48/51/17 49/52/18 65/69/18 
f 49/52/18 51/54/2 65/69/18 
f 49/52/18 35/37/2 51/54/2 
f 51/54/2 66/70/3 67/71/2 
f 51/54/2 50/53/3 66/70/3 
f 50/53/3 68/72/4 66/70/3 
f 50/53/3 52/55/4 68/72/4 
f 52/55/4 69/73/5 68/72/4 
f 52/55/4 53/56/5 69/73/5 
f 53/58/5 70/74/6 69/75/5 
f 53/58/5 54/57/6 70/74/6 
f 54/57/6 71/76/8 70/74/6 
f 54/57/6 55/59/8 71/76/8 
f 55/59/8 72/77/9 71/76/8 
f 55/59/8 56/60/9 72/77/9 
f 56/60/9 73/78/10 72/77/9 
f 56/60/9 57/61/10 73/78/10 
f 57/61/10 74/79/11 73/78/10 
f 57/61/10 58/62/11 74/79/11 
f 58/62/11 75/80/12 74/79/11 
f 58/62/11 59/63/12 75/80/12 
f 59/63/12 76/81/13 75/80/12 
f 59/63/12 60/64/13 76/81/13 
f 60/64/13 77/82/14 76/81/13 
f 60/64/13 61/65/14 77/82/14 
f 61/65/14 78/83/15 77/82/14 
f 61/65/14 62/66/15 78/83/15 
f 62/66/15 79/84/16 78/83/15 
f 62/66/15 63/67/16 79/84/16 
f 63/67/16 80/85/17 79/84/16 
f 63/67/16 64/68/17 80/85/17 
f 64/68/17 81/86/18 80/85/17 
f 64/68/17 65/69/18 81/86/18 
f 65/69/18 67/71/2 81/86/18 
f 65/69/18 51/54/2 67/71/2 
f 67/71/2 82/87/19 82/87/20 
f 67/71/2 66/70/3 82/87/19 
f 66/70/3 82/87/21 82/87/19 
f 66/70/3 68/72/4 82/87/21 
f 68/72/4 82/87/22 82/87/21 
f 68/72/4 69/73/5 82/87/22 
f 69/73/5 82/87/23 82/87/22 
f 69/75/5 70/74/6 82/87/23 
f 70/74/6 82/87/24 82/87/23 
f 70/74/6 71/76/8 82/87/24 
f 71/76/8 82/87/25 82/87/24 
f 71/76/8 72/77/9 82/87/25 
f 72/77/9 82/87/26 82/87/25 
f 72/77/9 73/78/10 82/87/26 
f 73/78/10 82/87/27 82/87/26 
f 73/78/10 74/79/11 82/87/27 
f 74/79/11 82/87/28 82/87/27 
f 74/79/11 75/80/12 82/87/28 
f 75/80/12 82/87/29 82/87/28 
f 75/80/12 76/81/13 82/87/29 
f 76/81/13 82/87/30 82/87/29 
f 76/81/13 77/82/14 82/87/30 
f 77/82/14 82/87/31 82/87/30 
f 77/82/14 78/83/15 82/87/31 
f 78/83/15 82/87/32 82/87/31 
f 78/83/15 79/84/16 82/87/32 
f 79/84/16 82/87/33 82/87/32 
f 79/84/16 80/85/17 82/87/33 
f 80/85/17 82/87/34 82/87/33 
f 80/85/17 81/86/18 82/87/34 
f 81/86/18 82/87/20 82/87/34 
f 81/86/18 67/71/2 82/87/20 
s 1
f 82/87/35 82/87/35 82/87/35 
f 82/87/35 82/87/35 82/87/35 
f 82/87/35 82/87/35 82/87/35 
f 82/87/35 82/87/35 82/87/35 
f 82/87/35 82/87/35 82/87/35 
f 82/87/35 82/87/35 82/87/35 
f 82/87/35 82/87/35 82/87/35 
f 82/87/35 82/87/35 82/87/35 
f 82/87/35 82/87/35 82/87/35 
f 82/87/35 82/87/35 82/87/35 
f 82/87/35 82/87/35 82/87/35 
f 82/87/35 82/87/35 82/87/35 
f 82/87/35 82/87/35 82/87/35 
f 82/87/35 82/87/35 82/87/35 
f 82/87/35 82/87/35 82/87/35 
f 82/87/35 82/87/35 82/87/35 
# 192 faces

